<?xml version="1.0" standalone="no"?>
<!DOCTYPE svg PUBLIC "-//W3C//DTD SVG 20010904//EN"
 "http://www.w3.org/TR/2001/REC-SVG-20010904/DTD/svg10.dtd">
<svg version="1.0" xmlns="http://www.w3.org/2000/svg"
 width="512.000000pt" height="512.000000pt" viewBox="0 0 512.000000 512.000000"
 preserveAspectRatio="xMidYMid meet">

<g transform="translate(0.000000,512.000000) scale(0.100000,-0.100000)"
fill="#000000" stroke="none">
<path d="M2452 4313 c-65 -23 -138 -97 -167 -168 -15 -38 -30 -61 -42 -63 -46
-9 -235 -78 -298 -109 -336 -168 -572 -463 -657 -823 -18 -75 -21 -135 -28
-515 -4 -262 -11 -443 -18 -463 -20 -61 -53 -102 -157 -192 -261 -228 -354
-391 -328 -578 25 -175 139 -311 314 -374 63 -22 72 -23 537 -26 l472 -3 0
-49 c0 -152 117 -323 273 -399 217 -106 484 -28 618 180 39 62 69 156 69 219
l0 49 473 3 c446 3 475 5 533 24 167 57 288 196 316 366 31 189 -65 360 -331
592 -101 88 -133 127 -153 188 -7 21 -14 194 -18 458 -7 454 -10 482 -65 646
-120 356 -428 652 -805 772 -52 16 -103 32 -113 33 -11 3 -27 26 -42 64 -30
74 -102 145 -171 169 -59 20 -155 19 -212 -1z m343 -477 c320 -70 578 -263
710 -531 85 -174 87 -183 96 -670 4 -236 12 -450 18 -475 30 -138 81 -222 195
-323 239 -211 303 -298 294 -398 -7 -69 -47 -125 -111 -155 l-52 -24 -1385 0
-1385 0 -52 24 c-102 48 -138 154 -89 261 26 57 73 108 288 310 106 100 136
148 170 273 19 70 21 117 28 507 7 428 7 430 33 518 112 366 407 615 822 692
99 18 319 14 420 -9z m-5 -2852 c0 -77 -63 -173 -134 -205 -53 -24 -139 -24
-192 0 -53 24 -109 91 -123 146 -20 81 -38 75 219 75 202 0 230 -2 230 -16z"/>
</g>
</svg>
